<svg viewBox="0 0 294 232" xmlns="http://www.w3.org/2000/svg">
  <path
    d="M91.1982 23.2489C62.8886 21.5708 48.3011 35.4399 45.4258 43.9284C45.2674 44.396 45.8306 44.7134 46.207 44.3938C57.4951 34.8082 89.3088 31.3228 107.127 30.2205C107.639 30.1888 107.74 29.5926 107.261 29.4073C104.775 28.4451 100.283 26.7256 97.3107 25.2659C95.403 24.329 93.3198 23.3747 91.1982 23.2489Z"
    class="lb" fill="white" />
  <path
    d="M94.0024 0.0659076C64.4583 -0.0773079 47.4721 4.19527 46.9119 31.6085C46.9023 32.0782 47.4988 32.3172 47.8189 31.9733C57.3869 21.6965 79.2409 17.0757 95.4788 19.9391C96.7472 20.1627 97.944 19.2168 97.9442 17.9289L97.9461 4.04036C97.9463 1.8567 96.186 0.0764929 94.0024 0.0659076Z"
    class="lt" fill="white" />
  <path
    d="M199.181 0.0659076C228.725 -0.0773079 245.712 4.19527 246.272 31.6085C246.281 32.0782 245.685 32.3172 245.365 31.9733C235.797 21.6965 213.943 17.0757 197.705 19.9391C196.436 20.1627 195.24 19.2168 195.239 17.9289L195.238 4.04036C195.237 1.8567 196.998 0.0764929 199.181 0.0659076Z"
    class="rt" fill="white" />
  <path
    d="M202.827 22.8426C231.137 21.1645 245.724 35.0336 248.6 43.5221C248.758 43.9898 248.194 44.3074 247.818 43.9884C236.529 34.429 204.716 31.2967 186.898 30.2191C186.386 30.1881 186.275 29.5681 186.75 29.3711L186.837 29.3349C189.345 28.2923 193.8 26.441 196.743 24.9093C198.629 23.9283 200.706 22.9684 202.827 22.8426Z"
    class="rb" fill="white" />
  <path
    d="M221.711 68.1503V63.0938L217.011 56.1367H220.048L223.067 60.8901L226.026 56.1367H229.011L224.293 63.1114V68.1503H221.711Z"
    class="y-letter" fill="white" />
  <path
    d="M197.011 88.1729L201.422 81.9041L197.425 76.1593H200.471L203.06 80.0192L205.595 76.1593H208.615L204.6 81.994L209.011 88.1729H205.868L203.006 84.0178L200.136 88.1729H197.011Z"
    class="x-letter" fill="white" />
  <path
    d="M126.013 89.174C129.879 89.174 133.013 86.0365 133.013 82.1661C133.013 78.2958 129.879 75.1582 126.013 75.1582C122.147 75.1582 119.013 78.2958 119.013 82.1661C119.013 86.0365 122.147 89.174 126.013 89.174Z"
    class="l-options" fill="white" />
  <path
    d="M169.012 89.174C172.878 89.174 176.012 86.0365 176.012 82.1661C176.012 78.2958 172.878 75.1582 169.012 75.1582C165.146 75.1582 162.012 78.2958 162.012 82.1661C162.012 86.0365 165.146 89.174 169.012 89.174Z"
    class="r-options" fill="white" />
  <path clip-rule="evenodd"
    d="M208.011 126.216C208.011 138.38 198.162 148.241 186.012 148.241C173.862 148.241 164.012 138.38 164.012 126.216C164.012 114.052 173.862 104.191 186.012 104.191C198.162 104.191 208.011 114.052 208.011 126.216Z"
    class="rs-container" fill="black" />
  <path
    d="M132.013 130.22C132.013 142.937 121.716 153.246 109.013 153.246C96.311 153.246 86.0137 142.937 86.0137 130.22C86.0137 117.503 96.311 107.194 109.013 107.194C121.716 107.194 132.013 117.503 132.013 130.22Z"
    class="cross-container" fill="black" />
  <path fill-rule="evenodd"
    d="M93.0136 82.1661C93.0136 94.3301 83.1641 104.191 71.0141 104.191C58.8641 104.191 49.0145 94.3301 49.0145 82.1661C49.0145 70.0021 58.8641 60.1412 71.0141 60.1412C83.1641 60.1412 93.0136 70.0021 93.0136 82.1661Z"
    class="ls-container" fill="black" />
  <path fill-rule="evenodd"
    d="M152.1 32.1C150.7 32.1 149.3 32.1 148 32.1 146.7 32.1 145.3 32.1 143.9 32.1 115.7 32 61.4 31.9 42.3 51.3 41.8 51.8 41.4 52.5 41 53.2 30.5 75.8 9.1 126.5 4 157.3-2.5 183.4-4.2 222.6 23.6 230.6 27.7 231.8 32 230.8 35.3 228.1 44.5 220.8 58.4 205.6 69 189.3 72.7 183.9 84.2 172.8 101 172.8H193C209.8 172.8 221.3 183.9 225 189.3 235.6 205.6 249.5 220.8 258.7 228.1 262 230.8 266.3 231.8 270.4 230.6 298.2 222.6 296.5 183.4 290 157.3 284.9 126.5 263.5 75.8 253 53.2 252.6 52.5 252.2 51.8 251.7 51.3 232.7 31.9 180.1 32 152.1 32.1ZM208 126.2C208 138.4 198.2 148.2 186 148.2 173.9 148.2 164 138.4 164 126.2 164 114.1 173.9 104.2 186 104.2 198.2 104.2 208 114.1 208 126.2ZM132 130.2C132 142.9 121.7 153.2 109 153.2 96.3 153.2 86 142.9 86 130.2 86 117.5 96.3 107.2 109 107.2 121.7 107.2 132 117.5 132 130.2ZM93 82.2C93 94.3 83.2 104.2 71 104.2 58.9 104.2 49 94.3 49 82.2 49 70 58.9 60.1 71 60.1 83.2 60.1 93 70 93 82.2ZM223 91.2C229.1 91.2 234 96.1 234 102.2 234 108.3 229.1 113.2 223 113.2 216.9 113.2 212 108.3 212 102.2 212 96.1 216.9 91.2 223 91.2ZM234 62.1C234 56.1 229.1 51.1 223 51.1 216.9 51.1 212 56.1 212 62.1 212 68.2 216.9 73.2 223 73.2 229.1 73.2 234 68.2 234 62.1ZM254 82.2C254 88.2 249.1 93.2 243 93.2 236.9 93.2 232 88.2 232 82.2 232 76.1 236.9 71.2 243 71.2 249.1 71.2 254 76.1 254 82.2ZM203 93.2C209.1 93.2 214 88.2 214 82.2 214 76.1 209.1 71.2 203 71.2 196.9 71.2 192 76.1 192 82.2 192 88.2 196.9 93.2 203 93.2ZM126 92.2C131.5 92.2 136 87.7 136 82.2 136 76.6 131.5 72.2 126 72.2 120.5 72.2 116 76.6 116 82.2 116 87.7 120.5 92.2 126 92.2ZM179 82.2C179 87.7 174.5 92.2 169 92.2 163.5 92.2 159 87.7 159 82.2 159 76.6 163.5 72.2 169 72.2 174.5 72.2 179 76.6 179 82.2"
    class="gamepad-body" fill="white" />

  <path fill-rule="evenodd"
    d="M203.011 93.1786C209.086 93.1786 214.011 88.2472 214.011 82.1661C214.011 76.085 209.086 71.1537 203.011 71.1537C196.936 71.1537 192.011 76.085 192.011 82.1661C192.011 88.2472 196.936 93.1786 203.011 93.1786ZM197.011 88.1729L201.422 81.9041L197.425 76.1593H200.471L203.06 80.0192L205.595 76.1593H208.615L204.6 81.994L209.011 88.1729H205.868L203.006 84.0178L200.136 88.1729H197.011Z"
    class="x-button" fill="black" />
  <path fill-rule="evenodd"
    d="M234.01 62.1435C234.01 56.0624 229.086 51.1311 223.011 51.1311C216.936 51.1311 212.011 56.0624 212.011 62.1435C212.011 68.2246 216.936 73.1559 223.011 73.1559C229.086 73.1559 234.01 68.2246 234.01 62.1435ZM221.711 68.1503V63.0938L217.011 56.1367H220.048L223.067 60.8901L226.026 56.1367H229.011L224.293 63.1114V68.1503H221.711Z"
    class="y-button" fill="black" />
  <path
    d="M88.0146 82.1486C88.0146 91.5375 80.4035 99.1486 71.0146 99.1486C61.6258 99.1486 54.0146 91.5375 54.0146 82.1486C54.0146 72.7598 61.6258 65.1486 71.0146 65.1486C80.4035 65.1486 88.0146 72.7598 88.0146 82.1486Z"
    class="ls" fill="white" stroke="#000" stroke-width="3" />
  <path
    d="M203.007 126.11C203.007 135.498 195.395 143.11 186.007 143.11C176.618 143.11 169.007 135.498 169.007 126.11C169.007 116.721 176.618 109.11 186.007 109.11C195.395 109.11 203.007 116.721 203.007 126.11Z"
    class="rs" fill="white" stroke="#000" stroke-width="3" />
  <path
    d="M104.013 113.11C104.013 112.005 104.908 111.11 106.013 111.11H112.013C113.117 111.11 114.013 112.005 114.013 113.11V121.11C114.013 122.214 113.117 123.11 112.013 123.11H106.013C104.908 123.11 104.013 122.214 104.013 121.11V113.11Z"
    class="t-axes" fill="white" />
  <path
    d="M92.0127 135.11C90.9081 135.11 90.0127 134.214 90.0127 133.11V127.11C90.0127 126.005 90.9081 125.11 92.0127 125.11H100.013C101.117 125.11 102.013 126.005 102.013 127.11V133.11C102.013 134.214 101.117 135.11 100.013 135.11H92.0127Z"
    class="l-axes" fill="white" />
  <path
    d="M108.013 133.11C106.908 133.11 106.013 132.214 106.013 131.11V129.11C106.013 128.005 106.908 127.11 108.013 127.11H110.013C111.117 127.11 112.013 128.005 112.013 129.11V131.11C112.013 132.214 111.117 133.11 110.013 133.11H108.013Z"
    class="c-axes" fill="white" />
  <path
    d="M104.013 139.11C104.013 138.005 104.908 137.11 106.013 137.11H112.013C113.117 137.11 114.013 138.005 114.013 139.11V147.11C114.013 148.214 113.117 149.11 112.013 149.11H106.013C104.908 149.11 104.013 148.214 104.013 147.11V139.11Z"
    class="b-axes" fill="white" />
  <path
    d="M118.013 135.11C116.908 135.11 116.013 134.214 116.013 133.11V127.11C116.013 126.005 116.908 125.11 118.013 125.11H126.013C127.117 125.11 128.013 126.005 128.013 127.11V133.11C128.013 134.214 127.117 135.11 126.013 135.11H118.013Z"
    class="r-axes" fill="white" />
  <path
    d="M254.01 82.1661C254.01 88.2472 249.085 93.1786 243.01 93.1786C236.935 93.1786 232.011 88.2472 232.011 82.1661C232.011 76.085 236.935 71.1537 243.01 71.1537C249.085 71.1537 254.01 76.085 254.01 82.1661Z"
    class="b-button" fill="black" />
  <path fill-rule="evenodd"
    d="M238.011 76.1584H242.783C243.21 76.1584 243.587 76.1662 243.915 76.1838C244.313 76.2034 244.639 76.2366 244.891 76.2816C245.028 76.3031 245.161 76.3344 245.289 76.3715C245.597 76.4615 245.881 76.5964 246.138 76.7724C246.507 77.0246 246.813 77.3609 247.057 77.7813C247.303 78.1958 247.425 78.6632 247.425 79.1813C247.425 79.7445 247.272 80.2607 246.969 80.7319C246.883 80.8668 246.788 80.992 246.683 81.1073C246.427 81.3948 246.114 81.6216 245.747 81.7878C246.474 82.0009 247.033 82.3646 247.425 82.8789C247.815 83.3912 248.011 83.9954 248.011 84.6895C248.011 85.2351 247.883 85.7689 247.628 86.287C247.378 86.8013 247.033 87.2139 246.594 87.5247C246.159 87.8298 245.622 88.0194 244.981 88.0898C244.58 88.1329 243.61 88.1602 242.074 88.172H238.011V76.1584ZM240.421 80.9353V78.1587H241.806C242.94 78.1587 243.627 78.1724 243.866 78.1998C244.056 78.2232 244.223 78.2662 244.367 78.3308C244.529 78.4031 244.663 78.5009 244.769 78.6241C244.975 78.8548 245.079 79.1559 245.079 79.5255C245.079 79.9146 244.96 80.2294 244.721 80.4679C244.487 80.7045 244.164 80.8453 243.752 80.8942C243.523 80.9216 242.94 80.9353 242.001 80.9353H240.421ZM240.421 86.1482V82.9356H242.367C243.464 82.9356 244.175 82.9923 244.501 83.1077C244.832 83.223 245.085 83.4049 245.258 83.6571C245.431 83.9074 245.518 84.2144 245.518 84.5742C245.518 84.8147 245.482 85.0278 245.41 85.2135C245.354 85.3582 245.276 85.4873 245.177 85.5987C244.954 85.851 244.664 86.0094 244.306 86.0739C244.203 86.0954 244.039 86.113 243.813 86.1247C243.526 86.1404 243.14 86.1482 242.652 86.1482H240.421Z"
    class="b-letter" fill="white" />
  <path
    d="M223.011 91.1763C229.086 91.1763 234.01 96.1076 234.01 102.189C234.01 108.27 229.086 113.201 223.011 113.201C216.936 113.201 212.011 108.27 212.011 102.189C212.011 96.1076 216.936 91.1763 223.011 91.1763Z"
    class="a-button" fill="black" />
  <path
    d="M226.384 108.195H229.01L224.222 96.1818H221.669L217.011 108.195H219.572L220.559 105.466H225.34L226.384 108.195ZM222.917 98.9838L224.564 103.442H221.302L222.917 98.9838Z"
    class="a-letter" fill="white" />

  <g fill="#000">
    <path
      d="M152.772 55.3978C154.916 58.0277 155.903 60.183 155.405 61.1468C155.023 61.8782 152.661 63.307 150.924 63.8543C149.491 64.3047 147.614 64.4984 146.065 64.3483C144.217 64.1691 142.344 63.5056 140.738 62.4594C139.387 61.5779 139.083 61.2146 139.083 60.493C139.083 59.0448 140.675 56.5069 143.399 53.6106C144.948 51.9687 147.101 50.041 147.338 50.0943C147.793 50.196 151.417 53.7316 152.772 55.3978Z" />
    <path
      d="M138.178 56.3664C138.87 54.4775 140.786 50.8983 143.999 46.9509L143.704 46.6832C142.373 45.4727 141.094 44.3088 139.818 43.8802C139.083 43.6332 139.029 43.6478 138.429 44.2726C137.016 45.7449 135.84 48.1327 135.511 50.2008C135.25 51.8573 135.216 52.3222 135.308 53.1311C135.579 55.577 136.145 57.2673 137.268 58.9867C137.728 59.6938 137.853 59.8246 137.718 59.4662C137.515 58.9334 137.703 57.6499 138.178 56.3664Z" />
    <path
      d="M141.71 42.0688C143.586 41.9704 145.92 43.1359 146.847 43.5991C147.061 43.7058 147.2 43.7752 147.241 43.7834C147.275 43.7882 147.745 43.5799 148.287 43.3136C151.117 41.9347 152.577 42.0332 153.301 42.082C153.368 42.0865 153.429 42.0906 153.484 42.093C150.392 40.1896 146.094 39.6714 142.165 41.5264C141.033 42.064 141.004 42.1027 141.71 42.0688Z" />
    <path
      d="M159.078 50.0265C158.26 46.1518 155.811 43.7156 155.468 43.7156C155.115 43.7156 154.297 44.0304 153.726 44.3888C152.688 45.035 151.88 45.7796 150.879 46.7019L150.614 46.9461C152.666 49.5276 155.56 53.6977 156.561 56.7442C156.89 57.7468 157.031 58.7348 156.92 59.2773C156.873 59.5122 156.852 59.6131 156.872 59.6213C156.886 59.6275 156.923 59.5812 156.987 59.5001C157.282 59.1272 157.95 57.9841 158.216 57.3932C158.575 56.6086 158.942 55.4462 159.117 54.5502C159.325 53.4604 159.305 51.1211 159.078 50.0265Z" />
  </g>
</svg>
